<svg width="80" height="80" viewBox="0 0 80 80" fill="none" xmlns="http://www.w3.org/2000/svg">
  <!-- Cat Body -->
  <ellipse cx="40" cy="50" rx="18" ry="22" fill="#2d2d2d"/>
  
  <!-- White Chest/Belly -->
  <ellipse cx="40" cy="55" rx="12" ry="15" fill="#ffffff"/>
  
  <!-- Cat Head -->
  <circle cx="40" cy="28" r="16" fill="#2d2d2d"/>
  
  <!-- White Face Marking -->
  <ellipse cx="40" cy="30" rx="8" ry="12" fill="#ffffff"/>
  
  <!-- Ears -->
  <path d="M28 20 L32 12 L36 20 Z" fill="#2d2d2d"/>
  <path d="M44 20 L48 12 L52 20 Z" fill="#2d2d2d"/>
  
  <!-- Inner Ears -->
  <path d="M30 18 L32 14 L34 18 Z" fill="#ff9999"/>
  <path d="M46 18 L48 14 L50 18 Z" fill="#ff9999"/>
  
  <!-- Eyes -->
  <ellipse cx="36" cy="26" rx="2.5" ry="3" fill="#66cc66"/>
  <ellipse cx="44" cy="26" rx="2.5" ry="3" fill="#66cc66"/>
  
  <!-- Eye pupils -->
  <ellipse cx="36" cy="26" rx="1" ry="2" fill="#000000"/>
  <ellipse cx="44" cy="26" rx="1" ry="2" fill="#000000"/>
  
  <!-- Eye shine -->
  <circle cx="36.5" cy="25" r="0.5" fill="#ffffff"/>
  <circle cx="44.5" cy="25" r="0.5" fill="#ffffff"/>
  
  <!-- Nose -->
  <path d="M40 30 L38 32 L42 32 Z" fill="#ff99aa"/>
  
  <!-- Mouth -->
  <path d="M40 33 Q37 35 35 34" stroke="#2d2d2d" stroke-width="1.5" fill="none" stroke-linecap="round"/>
  <path d="M40 33 Q43 35 45 34" stroke="#2d2d2d" stroke-width="1.5" fill="none" stroke-linecap="round"/>
  
  <!-- Whiskers -->
  <line x1="25" y1="28" x2="32" y2="29" stroke="#2d2d2d" stroke-width="1" stroke-linecap="round"/>
  <line x1="25" y1="32" x2="32" y2="32" stroke="#2d2d2d" stroke-width="1" stroke-linecap="round"/>
  <line x1="48" y1="29" x2="55" y2="28" stroke="#2d2d2d" stroke-width="1" stroke-linecap="round"/>
  <line x1="48" y1="32" x2="55" y2="32" stroke="#2d2d2d" stroke-width="1" stroke-linecap="round"/>
  
  <!-- Tail -->
  <path d="M22 45 Q15 40 18 50 Q20 55 25 52" stroke="#2d2d2d" stroke-width="6" fill="none" stroke-linecap="round"/>
  
  <!-- Paws -->
  <ellipse cx="32" cy="68" rx="3" ry="4" fill="#2d2d2d"/>
  <ellipse cx="48" cy="68" rx="3" ry="4" fill="#2d2d2d"/>
  <ellipse cx="35" cy="65" rx="2.5" ry="3" fill="#2d2d2d"/>
  <ellipse cx="45" cy="65" rx="2.5" ry="3" fill="#2d2d2d"/>
  
  <!-- White Paw Tips -->
  <ellipse cx="32" cy="70" rx="2" ry="2" fill="#ffffff"/>
  <ellipse cx="48" cy="70" rx="2" ry="2" fill="#ffffff"/>
</svg> 